# xmcd
#
# Track frame offsets:
#	150
#	16887
#	34335
#	53002
#	67367
#	84282
#	96282
#	108807
#	129022
#	148300
#	159027
#	176202
#	188472
#
# Disc length: 2697 seconds
# Revision: 0
# Processed by: cddbd v1.5.2PL0 Copyright (c) Steve Scherf et al.
# Submitted via: dBpowerAMP V12.0
#
DISCID=a30a870d
DTITLE=Cruz Neto - A Cor das Águas
DYEAR=1996
DGENRE=Brazil
TTITLE0=A Cor das Águas
TTITLE1=Toada
TTITLE2=Canção da Terra
TTITLE3=Aprendiz
TTITLE4=Ponta de Lua
TTITLE5=Branca
TTITLE6=Coração Noturno
TTITLE7=Olhar Nordestino
TTITLE8=Um Violeiro, Uma Viola, Um Luar
TTITLE9=Olhar de Passarinho
TTITLE10=Coisas do Coração
TTITLE11=Saudade Ligeira
TTITLE12=Trem de Caipira
EXTD=
EXTT0=
EXTT1=
EXTT2=
EXTT3=
EXTT4=
EXTT5=
EXTT6=
EXTT7=
EXTT8=
EXTT9=
EXTT10=
EXTT11=
EXTT12=
PLAYORDER=
